<?xml version="1.0" encoding="UTF-8"?>
<svg xmlns="http://www.w3.org/2000/svg" style="display: none;">

    <symbol id="endgame-icon-login">
		<path d="M7.86446 8.13603C9.74229 8.13603 11.2646 6.61375 11.2646 4.73592C11.2646 2.8581 9.74229 1.33582 7.86446 1.33582C5.98664 1.33582 4.46436 2.8581 4.46436 4.73592C4.46436 6.61375 5.98664 8.13603 7.86446 8.13603Z" stroke="#323338" stroke-width="0.743774" stroke-linecap="round" stroke-linejoin="round"/>
		<path d="M14.2869 17.203H1.06421V15.9208C1.06421 14.3905 1.76076 12.9229 3.00062 11.8408C4.24048 10.7588 5.9221 10.1509 7.67553 10.1509C9.42896 10.1509 11.1106 10.7588 12.3504 11.8408C13.5903 12.9229 14.2869 14.3905 14.2869 15.9208V17.203Z" stroke="#323338" stroke-width="0.743774" stroke-linecap="round" stroke-linejoin="round"/>
    </symbol>

    <symbol id="endgame-icon-search">
		<path d="M16.3197 15.9122C16.2111 15.9122 16.1024 15.8669 16.0118 15.7854L10.2338 10.27L9.81721 10.5598C8.73043 11.3115 7.49875 11.6919 6.1584 11.6919C2.76222 11.6919 0 9.06552 0 5.84142C0 2.61732 2.76222 0 6.1584 0C9.55457 0 12.3168 2.61732 12.3168 5.84142C12.3168 7.11838 11.9002 8.341 11.1485 9.28288L10.7953 9.72664L16.6186 15.2873C16.7001 15.3598 16.7363 15.4503 16.7363 15.5409C16.7363 15.6315 16.6911 15.713 16.6186 15.7945C16.5371 15.876 16.4284 15.9213 16.3197 15.9213V15.9122ZM6.1584 0.751687C3.23316 0.751687 0.851308 3.03392 0.851308 5.84142C0.851308 8.64892 3.23316 10.9312 6.1584 10.9312C9.08363 10.9312 11.4655 8.64892 11.4655 5.84142C11.4655 3.03392 9.08363 0.751687 6.1584 0.751687Z"/>
    </symbol>

	<symbol id="endgame-icon-burger">
		<line x1="0.413208" y1="7.74841" x2="20.5889" y2="7.74841" stroke="#888" stroke-width="0.826415" stroke-linecap="round"/>
		<line x1="0.413208" y1="14.1135" x2="20.5889" y2="14.1135" stroke="#888" stroke-width="0.826415" stroke-linecap="round"/>
		<line x1="0.413208" y1="1.38342" x2="20.5889" y2="1.38342" stroke="#888" stroke-width="0.826415" stroke-linecap="round"/>
    </symbol>

</svg>